<mxfile host="drawio-plugin" modified="2023-08-25T08:53:23.445Z" agent="5.0 (Windows NT 10.0; Win64; x64) AppleWebKit/537.36 (KHTML, like Gecko) Chrome/111.0.0.0 Safari/537.36" version="20.5.3" etag="oLyZjSUD7tYSdQI2Aib9" type="embed"><diagram id="QvxHgC8nsyZxXBDKmdUi" name="Page-1"><mxGraphModel dx="2494" dy="1791" grid="1" gridSize="10" guides="1" tooltips="1" connect="1" arrows="1" fold="1" page="1" pageScale="1" pageWidth="850" pageHeight="1100" math="0" shadow="0"><root><mxCell id="0"/><mxCell id="1" parent="0"/><mxCell id="20" value="" style="rounded=0;whiteSpace=wrap;html=1;dashed=1;" vertex="1" parent="1"><mxGeometry x="948" y="260" width="302" height="170" as="geometry"/></mxCell><mxCell id="11" value="" style="rounded=0;whiteSpace=wrap;html=1;dashed=1;" vertex="1" parent="1"><mxGeometry x="-130" y="90" width="1470" height="480" as="geometry"/></mxCell><mxCell id="2" value="Azure Kubernetes Service (AKS)" style="aspect=fixed;html=1;points=[];align=center;image;fontSize=12;image=img/lib/azure2/containers/Kubernetes_Services.svg;" vertex="1" parent="1"><mxGeometry x="-78" y="468" width="68" height="60" as="geometry"/></mxCell><mxCell id="3" value="Azure Cache for Redis" style="aspect=fixed;html=1;points=[];align=center;image;fontSize=12;image=img/lib/azure2/databases/Cache_Redis.svg;" vertex="1" parent="1"><mxGeometry x="290" y="746" width="64" height="52" as="geometry"/></mxCell><mxCell id="5" value="Azure AD" style="aspect=fixed;html=1;points=[];align=center;image;fontSize=12;image=img/lib/azure2/identity/Azure_Active_Directory.svg;" vertex="1" parent="1"><mxGeometry x="948" y="760" width="70" height="64" as="geometry"/></mxCell><mxCell id="6" value="Azure Key Vault" style="aspect=fixed;html=1;points=[];align=center;image;fontSize=12;image=img/lib/azure2/security/Key_Vaults.svg;" vertex="1" parent="1"><mxGeometry x="1241" y="730" width="68" height="68" as="geometry"/></mxCell><mxCell id="7" value="Cloudflare DNS" style="aspect=fixed;html=1;points=[];align=center;image;fontSize=12;image=img/lib/azure2/networking/DNS_Zones.svg;" vertex="1" parent="1"><mxGeometry x="1083" y="-94" width="64" height="64" as="geometry"/></mxCell><mxCell id="9" value="Virtual Network" style="aspect=fixed;html=1;points=[];align=center;image;fontSize=12;image=img/lib/azure2/networking/Virtual_Networks.svg;" vertex="1" parent="1"><mxGeometry x="1260" y="550" width="67" height="40" as="geometry"/></mxCell><mxCell id="10" value="ingress-controller Public IP" style="aspect=fixed;html=1;points=[];align=center;image;fontSize=12;image=img/lib/azure2/networking/Public_IP_Addresses.svg;" vertex="1" parent="1"><mxGeometry x="792.5" y="-88" width="65" height="52" as="geometry"/></mxCell><mxCell id="12" value="Azure Service Operator Managed Identity" style="aspect=fixed;html=1;points=[];align=center;image;fontSize=12;image=img/lib/azure2/identity/Managed_Identities.svg;" vertex="1" parent="1"><mxGeometry x="520" y="640" width="68" height="66" as="geometry"/></mxCell><mxCell id="16" value="Resource Group" style="aspect=fixed;html=1;points=[];align=center;image;fontSize=12;image=img/lib/azure2/general/Resource_Groups.svg;dashed=1;" vertex="1" parent="1"><mxGeometry x="520" y="780" width="68" height="64" as="geometry"/></mxCell><mxCell id="21" value="" style="rounded=0;whiteSpace=wrap;html=1;dashed=1;" vertex="1" parent="1"><mxGeometry x="1001" y="320" width="240" height="190" as="geometry"/></mxCell><mxCell id="17" value="external-secrets-operator" style="sketch=0;html=1;dashed=0;whitespace=wrap;fillColor=#2875E2;strokeColor=#ffffff;points=[[0.005,0.63,0],[0.1,0.2,0],[0.9,0.2,0],[0.5,0,0],[0.995,0.63,0],[0.72,0.99,0],[0.5,1,0],[0.28,0.99,0]];verticalLabelPosition=bottom;align=center;verticalAlign=top;shape=mxgraph.kubernetes.icon;prIcon=pod" vertex="1" parent="1"><mxGeometry x="1110" y="362" width="50" height="48" as="geometry"/></mxCell><mxCell id="19" value="external-secrets" style="sketch=0;html=1;dashed=0;whitespace=wrap;fillColor=#2875E2;strokeColor=#ffffff;points=[[0.005,0.63,0],[0.1,0.2,0],[0.9,0.2,0],[0.5,0,0],[0.995,0.63,0],[0.72,0.99,0],[0.5,1,0],[0.28,0.99,0]];verticalLabelPosition=bottom;align=center;verticalAlign=top;shape=mxgraph.kubernetes.icon;prIcon=ns" vertex="1" parent="1"><mxGeometry x="1210" y="290" width="50" height="48" as="geometry"/></mxCell><mxCell id="4" value="External Secrets Managed Identity" style="aspect=fixed;html=1;points=[];align=center;image;fontSize=12;image=img/lib/azure2/identity/Managed_Identities.svg;" vertex="1" parent="1"><mxGeometry x="1001" y="600" width="68" height="66" as="geometry"/></mxCell><mxCell id="22" value="SA" style="sketch=0;html=1;dashed=0;whitespace=wrap;fillColor=#2875E2;strokeColor=#ffffff;points=[[0.005,0.63,0],[0.1,0.2,0],[0.9,0.2,0],[0.5,0,0],[0.995,0.63,0],[0.72,0.99,0],[0.5,1,0],[0.28,0.99,0]];verticalLabelPosition=bottom;align=center;verticalAlign=top;shape=mxgraph.kubernetes.icon;prIcon=sa" vertex="1" parent="1"><mxGeometry x="1018" y="440" width="50" height="48" as="geometry"/></mxCell><mxCell id="23" value="" style="endArrow=classic;html=1;rounded=0;exitX=0.5;exitY=1;exitDx=0;exitDy=0;exitPerimeter=0;" edge="1" parent="1" source="22" target="4"><mxGeometry width="50" height="50" relative="1" as="geometry"><mxPoint x="1160" y="630" as="sourcePoint"/><mxPoint x="1210" y="580" as="targetPoint"/></mxGeometry></mxCell><mxCell id="24" value="" style="endArrow=classic;html=1;rounded=0;" edge="1" parent="1" source="4" target="6"><mxGeometry width="50" height="50" relative="1" as="geometry"><mxPoint x="1210" y="720" as="sourcePoint"/><mxPoint x="1260" y="670" as="targetPoint"/></mxGeometry></mxCell><mxCell id="25" value="" style="endArrow=classic;html=1;rounded=0;" edge="1" parent="1" source="4" target="5"><mxGeometry width="50" height="50" relative="1" as="geometry"><mxPoint x="1050" y="790" as="sourcePoint"/><mxPoint x="1100" y="740" as="targetPoint"/></mxGeometry></mxCell><mxCell id="26" value="" style="rounded=0;whiteSpace=wrap;html=1;dashed=1;" vertex="1" parent="1"><mxGeometry x="1001" y="130" width="239" height="130" as="geometry"/></mxCell><mxCell id="27" value="external-dns" style="sketch=0;html=1;dashed=0;whitespace=wrap;fillColor=#2875E2;strokeColor=#ffffff;points=[[0.005,0.63,0],[0.1,0.2,0],[0.9,0.2,0],[0.5,0,0],[0.995,0.63,0],[0.72,0.99,0],[0.5,1,0],[0.28,0.99,0]];verticalLabelPosition=bottom;align=center;verticalAlign=top;shape=mxgraph.kubernetes.icon;prIcon=ns" vertex="1" parent="1"><mxGeometry x="1210" y="106" width="50" height="48" as="geometry"/></mxCell><mxCell id="28" value="external-dns-operator" style="sketch=0;html=1;dashed=0;whitespace=wrap;fillColor=#2875E2;strokeColor=#ffffff;points=[[0.005,0.63,0],[0.1,0.2,0],[0.9,0.2,0],[0.5,0,0],[0.995,0.63,0],[0.72,0.99,0],[0.5,1,0],[0.28,0.99,0]];verticalLabelPosition=bottom;align=center;verticalAlign=top;shape=mxgraph.kubernetes.icon;prIcon=pod" vertex="1" parent="1"><mxGeometry x="1090" y="154" width="50" height="48" as="geometry"/></mxCell><mxCell id="29" value="" style="endArrow=classic;html=1;rounded=0;exitX=0.5;exitY=0;exitDx=0;exitDy=0;exitPerimeter=0;" edge="1" parent="1" source="28" target="7"><mxGeometry width="50" height="50" relative="1" as="geometry"><mxPoint x="1160" y="70" as="sourcePoint"/><mxPoint x="1210" y="20" as="targetPoint"/></mxGeometry></mxCell><mxCell id="30" value="Lets Encrypt Certificate Authority" style="aspect=fixed;html=1;points=[];align=center;image;fontSize=12;image=img/lib/azure2/general/File.svg;dashed=1;" vertex="1" parent="1"><mxGeometry x="526" y="-140" width="56.00000000000001" height="69" as="geometry"/></mxCell><mxCell id="31" value="" style="endArrow=classic;html=1;rounded=0;" edge="1" parent="1" source="7" target="10"><mxGeometry width="50" height="50" relative="1" as="geometry"><mxPoint x="960" y="10" as="sourcePoint"/><mxPoint x="1010" y="-40" as="targetPoint"/></mxGeometry></mxCell><mxCell id="32" value="" style="rounded=0;whiteSpace=wrap;html=1;dashed=1;" vertex="1" parent="1"><mxGeometry x="720" y="134" width="210" height="122" as="geometry"/></mxCell><mxCell id="33" value="nginx-ingress" style="sketch=0;html=1;dashed=0;whitespace=wrap;fillColor=#2875E2;strokeColor=#ffffff;points=[[0.005,0.63,0],[0.1,0.2,0],[0.9,0.2,0],[0.5,0,0],[0.995,0.63,0],[0.72,0.99,0],[0.5,1,0],[0.28,0.99,0]];verticalLabelPosition=bottom;align=center;verticalAlign=top;shape=mxgraph.kubernetes.icon;prIcon=ns" vertex="1" parent="1"><mxGeometry x="910" y="106" width="50" height="48" as="geometry"/></mxCell><mxCell id="34" value="nginx-ingress-service" style="sketch=0;html=1;dashed=0;whitespace=wrap;fillColor=#2875E2;strokeColor=#ffffff;points=[[0.005,0.63,0],[0.1,0.2,0],[0.9,0.2,0],[0.5,0,0],[0.995,0.63,0],[0.72,0.99,0],[0.5,1,0],[0.28,0.99,0]];verticalLabelPosition=bottom;align=center;verticalAlign=top;shape=mxgraph.kubernetes.icon;prIcon=svc" vertex="1" parent="1"><mxGeometry x="800" y="154" width="50" height="48" as="geometry"/></mxCell><mxCell id="42" value="" style="rounded=0;whiteSpace=wrap;html=1;dashed=1;" vertex="1" parent="1"><mxGeometry x="710" y="320" width="240" height="190" as="geometry"/></mxCell><mxCell id="35" value="" style="endArrow=classic;html=1;rounded=0;entryX=0.5;entryY=0;entryDx=0;entryDy=0;entryPerimeter=0;" edge="1" parent="1" source="10" target="34"><mxGeometry width="50" height="50" relative="1" as="geometry"><mxPoint x="450" y="50" as="sourcePoint"/><mxPoint x="500" as="targetPoint"/></mxGeometry></mxCell><mxCell id="38" value="SA" style="sketch=0;html=1;dashed=0;whitespace=wrap;fillColor=#2875E2;strokeColor=#ffffff;points=[[0.005,0.63,0],[0.1,0.2,0],[0.9,0.2,0],[0.5,0,0],[0.995,0.63,0],[0.72,0.99,0],[0.5,1,0],[0.28,0.99,0]];verticalLabelPosition=bottom;align=center;verticalAlign=top;shape=mxgraph.kubernetes.icon;prIcon=sa" vertex="1" parent="1"><mxGeometry x="720" y="420" width="50" height="48" as="geometry"/></mxCell><mxCell id="39" value="azure-service-operator" style="sketch=0;html=1;dashed=0;whitespace=wrap;fillColor=#2875E2;strokeColor=#ffffff;points=[[0.005,0.63,0],[0.1,0.2,0],[0.9,0.2,0],[0.5,0,0],[0.995,0.63,0],[0.72,0.99,0],[0.5,1,0],[0.28,0.99,0]];verticalLabelPosition=bottom;align=center;verticalAlign=top;shape=mxgraph.kubernetes.icon;prIcon=pod" vertex="1" parent="1"><mxGeometry x="791" y="344" width="50" height="48" as="geometry"/></mxCell><mxCell id="43" value="" style="endArrow=classic;html=1;rounded=0;exitX=0.5;exitY=1;exitDx=0;exitDy=0;exitPerimeter=0;" edge="1" parent="1" source="38" target="12"><mxGeometry width="50" height="50" relative="1" as="geometry"><mxPoint x="690" y="640" as="sourcePoint"/><mxPoint x="740" y="590" as="targetPoint"/></mxGeometry></mxCell><mxCell id="44" value="" style="endArrow=classic;html=1;rounded=0;" edge="1" parent="1" source="12" target="5"><mxGeometry width="50" height="50" relative="1" as="geometry"><mxPoint x="710" y="700" as="sourcePoint"/><mxPoint x="760" y="650" as="targetPoint"/></mxGeometry></mxCell><mxCell id="45" value="" style="endArrow=classic;html=1;rounded=0;" edge="1" parent="1" source="12" target="3"><mxGeometry width="50" height="50" relative="1" as="geometry"><mxPoint x="310" y="680" as="sourcePoint"/><mxPoint x="360" y="630" as="targetPoint"/></mxGeometry></mxCell><mxCell id="46" value="" style="endArrow=classic;html=1;rounded=0;" edge="1" parent="1" source="12" target="16"><mxGeometry width="50" height="50" relative="1" as="geometry"><mxPoint x="620" y="870" as="sourcePoint"/><mxPoint x="670" y="820" as="targetPoint"/></mxGeometry></mxCell><mxCell id="47" value="" style="rounded=0;whiteSpace=wrap;html=1;dashed=1;" vertex="1" parent="1"><mxGeometry x="444" y="330" width="220" height="180" as="geometry"/></mxCell><mxCell id="48" value="azure-service-operator" style="sketch=0;html=1;dashed=0;whitespace=wrap;fillColor=#2875E2;strokeColor=#ffffff;points=[[0.005,0.63,0],[0.1,0.2,0],[0.9,0.2,0],[0.5,0,0],[0.995,0.63,0],[0.72,0.99,0],[0.5,1,0],[0.28,0.99,0]];verticalLabelPosition=bottom;align=center;verticalAlign=top;shape=mxgraph.kubernetes.icon;prIcon=ns" vertex="1" parent="1"><mxGeometry x="920" y="296" width="50" height="48" as="geometry"/></mxCell><mxCell id="37" value="argocd" style="sketch=0;html=1;dashed=0;whitespace=wrap;fillColor=#2875E2;strokeColor=#ffffff;points=[[0.005,0.63,0],[0.1,0.2,0],[0.9,0.2,0],[0.5,0,0],[0.995,0.63,0],[0.72,0.99,0],[0.5,1,0],[0.28,0.99,0]];verticalLabelPosition=bottom;align=center;verticalAlign=top;shape=mxgraph.kubernetes.icon;prIcon=ns" vertex="1" parent="1"><mxGeometry x="630" y="306" width="50" height="48" as="geometry"/></mxCell><mxCell id="49" value="argocd-aks-gitops" style="verticalLabelPosition=bottom;html=1;verticalAlign=top;align=center;strokeColor=none;fillColor=#00BEF2;shape=mxgraph.azure.git_repository;dashed=1;" vertex="1" parent="1"><mxGeometry x="360" y="590" width="50" height="50" as="geometry"/></mxCell><mxCell id="50" value="argocd-server" style="sketch=0;html=1;dashed=0;whitespace=wrap;fillColor=#2875E2;strokeColor=#ffffff;points=[[0.005,0.63,0],[0.1,0.2,0],[0.9,0.2,0],[0.5,0,0],[0.995,0.63,0],[0.72,0.99,0],[0.5,1,0],[0.28,0.99,0]];verticalLabelPosition=bottom;align=center;verticalAlign=top;shape=mxgraph.kubernetes.icon;prIcon=pod" vertex="1" parent="1"><mxGeometry x="500" y="420" width="50" height="48" as="geometry"/></mxCell><mxCell id="51" value="" style="endArrow=classic;html=1;rounded=0;entryX=0.5;entryY=1;entryDx=0;entryDy=0;entryPerimeter=0;exitX=0.28;exitY=0.99;exitDx=0;exitDy=0;exitPerimeter=0;" edge="1" parent="1" source="50" target="49"><mxGeometry width="50" height="50" relative="1" as="geometry"><mxPoint x="50" y="440" as="sourcePoint"/><mxPoint x="100" y="390" as="targetPoint"/></mxGeometry></mxCell><mxCell id="52" value="" style="rounded=0;whiteSpace=wrap;html=1;dashed=1;" vertex="1" parent="1"><mxGeometry x="-110" y="106" width="276" height="229" as="geometry"/></mxCell><mxCell id="53" value="voting-app" style="sketch=0;html=1;dashed=0;whitespace=wrap;fillColor=#2875E2;strokeColor=#ffffff;points=[[0.005,0.63,0],[0.1,0.2,0],[0.9,0.2,0],[0.5,0,0],[0.995,0.63,0],[0.72,0.99,0],[0.5,1,0],[0.28,0.99,0]];verticalLabelPosition=bottom;align=center;verticalAlign=top;shape=mxgraph.kubernetes.icon;prIcon=ns" vertex="1" parent="1"><mxGeometry x="140" y="82" width="50" height="48" as="geometry"/></mxCell><mxCell id="54" value="voting-app" style="sketch=0;html=1;dashed=0;whitespace=wrap;fillColor=#2875E2;strokeColor=#ffffff;points=[[0.005,0.63,0],[0.1,0.2,0],[0.9,0.2,0],[0.5,0,0],[0.995,0.63,0],[0.72,0.99,0],[0.5,1,0],[0.28,0.99,0]];verticalLabelPosition=bottom;align=center;verticalAlign=top;shape=mxgraph.kubernetes.icon;prIcon=pod" vertex="1" parent="1"><mxGeometry y="220" width="50" height="48" as="geometry"/></mxCell><mxCell id="55" value="ingress" style="sketch=0;html=1;dashed=0;whitespace=wrap;fillColor=#2875E2;strokeColor=#ffffff;points=[[0.005,0.63,0],[0.1,0.2,0],[0.9,0.2,0],[0.5,0,0],[0.995,0.63,0],[0.72,0.99,0],[0.5,1,0],[0.28,0.99,0]];verticalLabelPosition=bottom;align=center;verticalAlign=top;shape=mxgraph.kubernetes.icon;prIcon=ing" vertex="1" parent="1"><mxGeometry x="-10" y="86" width="50" height="48" as="geometry"/></mxCell><mxCell id="56" value="" style="endArrow=classic;html=1;rounded=0;entryX=0.5;entryY=0;entryDx=0;entryDy=0;entryPerimeter=0;" edge="1" parent="1" source="58" target="55"><mxGeometry width="50" height="50" relative="1" as="geometry"><mxPoint x="580" y="-40" as="sourcePoint"/><mxPoint x="580" y="-10" as="targetPoint"/></mxGeometry></mxCell><mxCell id="59" value="Text" style="edgeLabel;html=1;align=center;verticalAlign=middle;resizable=0;points=[];" vertex="1" connectable="0" parent="56"><mxGeometry x="-0.7031" y="-2" relative="1" as="geometry"><mxPoint as="offset"/></mxGeometry></mxCell><mxCell id="58" value="User" style="aspect=fixed;html=1;points=[];align=center;image;fontSize=12;image=img/lib/azure2/general/Help_and_Support.svg;dashed=1;" vertex="1" parent="1"><mxGeometry x="-20" y="-210" width="56" height="69" as="geometry"/></mxCell><mxCell id="60" value="" style="endArrow=classic;html=1;rounded=0;exitX=0.72;exitY=0.99;exitDx=0;exitDy=0;exitPerimeter=0;" edge="1" parent="1" source="54" target="3"><mxGeometry width="50" height="50" relative="1" as="geometry"><mxPoint x="280" y="680" as="sourcePoint"/><mxPoint x="330" y="630" as="targetPoint"/></mxGeometry></mxCell><mxCell id="61" style="edgeStyle=orthogonalEdgeStyle;rounded=0;orthogonalLoop=1;jettySize=auto;html=1;exitX=0.5;exitY=1;exitDx=0;exitDy=0;exitPerimeter=0;entryX=0.88;entryY=0.688;entryDx=0;entryDy=0;entryPerimeter=0;" edge="1" parent="1" source="55" target="55"><mxGeometry relative="1" as="geometry"/></mxCell><mxCell id="62" value="" style="rounded=0;whiteSpace=wrap;html=1;dashed=1;" vertex="1" parent="1"><mxGeometry x="440" y="140" width="230" height="140" as="geometry"/></mxCell><mxCell id="63" value="cert-manager" style="sketch=0;html=1;dashed=0;whitespace=wrap;fillColor=#2875E2;strokeColor=#ffffff;points=[[0.005,0.63,0],[0.1,0.2,0],[0.9,0.2,0],[0.5,0,0],[0.995,0.63,0],[0.72,0.99,0],[0.5,1,0],[0.28,0.99,0]];verticalLabelPosition=bottom;align=center;verticalAlign=top;shape=mxgraph.kubernetes.icon;prIcon=ns" vertex="1" parent="1"><mxGeometry x="640" y="116" width="50" height="48" as="geometry"/></mxCell><mxCell id="64" value="cert-manager-operator" style="sketch=0;html=1;dashed=0;whitespace=wrap;fillColor=#2875E2;strokeColor=#ffffff;points=[[0.005,0.63,0],[0.1,0.2,0],[0.9,0.2,0],[0.5,0,0],[0.995,0.63,0],[0.72,0.99,0],[0.5,1,0],[0.28,0.99,0]];verticalLabelPosition=bottom;align=center;verticalAlign=top;shape=mxgraph.kubernetes.icon;prIcon=pod" vertex="1" parent="1"><mxGeometry x="530" y="186" width="50" height="48" as="geometry"/></mxCell><mxCell id="65" value="" style="endArrow=classic;html=1;rounded=0;exitX=0.5;exitY=0;exitDx=0;exitDy=0;exitPerimeter=0;" edge="1" parent="1" source="64" target="30"><mxGeometry width="50" height="50" relative="1" as="geometry"><mxPoint x="490" y="80" as="sourcePoint"/><mxPoint x="540" y="30" as="targetPoint"/></mxGeometry></mxCell></root></mxGraphModel></diagram></mxfile>